<svg width="662" height="847" viewBox="0 0 662 847" fill="none" xmlns="http://www.w3.org/2000/svg">
<path d="M103.585 183.443L99.5083 190.121C98.828 191.108 98.2837 191.461 97.8753 191.179C97.501 190.921 97.6169 190.098 98.2233 188.708C98.8401 187.377 99.0406 186.285 98.8245 185.433C98.5978 184.524 97.872 183.647 96.6469 182.802L75.1052 167.953C73.4717 166.827 72.1229 166.198 71.0587 166.067C69.9944 165.936 68.9497 166.395 67.9244 167.445C66.8992 168.496 66.1483 168.857 65.6719 168.528C65.2976 168.27 65.4505 167.648 66.1309 166.661L72.3365 157.986L78.2517 149.187L79.624 147.196L80.1008 146.395C80.4996 145.817 80.8639 145.616 81.1936 145.793C81.717 146.054 82.4328 146.472 83.3411 147.048C84.2388 147.566 85.2831 148.236 86.4742 149.057C87.1889 149.55 87.4406 149.949 87.2295 150.255C86.948 150.664 86.5679 150.778 86.0891 150.599C84.5825 150.163 83.2777 150.016 82.1749 150.16C81.0954 150.269 80.0513 151.055 79.0426 152.519L74.5736 159.001C74.2217 159.512 74.0998 159.98 74.2078 160.406C74.3159 160.832 74.4996 161.184 74.7589 161.464C75.0417 161.709 75.5 162.1 76.1337 162.637C76.4506 162.906 77.0003 163.31 77.783 163.85C78.5317 164.366 79.5016 165.034 80.6927 165.855C81.8498 166.653 82.8367 167.333 83.6534 167.896C84.4361 168.436 85.0264 168.818 85.4242 169.042C86.2069 169.581 86.7155 169.681 86.9501 169.34L90.8789 163.314C91.9346 161.782 91.9865 160.287 91.0346 158.827C90.9454 158.665 90.8691 158.412 90.8056 158.067C90.7316 157.665 90.7416 157.395 90.8354 157.259C90.9058 157.157 91.0847 157.08 91.3721 157.027C91.5446 156.995 91.852 157.132 92.2944 157.437C92.7368 157.742 93.1675 158.064 93.5865 158.403C93.9714 158.718 94.4021 159.04 94.8785 159.369C95.6272 159.885 96.7854 160.608 98.3531 161.538C98.9317 161.937 99.1153 162.289 98.9042 162.596C98.5523 163.106 97.8912 163.228 96.9208 162.96C95.2886 162.488 94.0737 162.83 93.2761 163.987C93.2761 163.987 93.1236 164.208 92.8187 164.651C92.5371 165.059 92.0861 165.677 91.4656 166.504C91.2076 166.879 90.8962 167.367 90.5314 167.969C90.156 168.513 89.7391 169.155 89.2804 169.893C88.7515 170.733 88.8953 171.434 89.7121 171.997C93.9319 174.906 97.2001 177.084 99.5165 178.53C100.72 179.26 101.81 179.609 102.785 179.578C103.749 179.49 104.733 178.938 105.734 177.922C106.736 176.905 107.424 176.526 107.799 176.784C108.207 177.066 108.071 177.7 107.391 178.687C107.062 179.163 106.717 179.628 106.354 180.081C105.992 180.534 105.624 180.958 105.251 181.354C104.562 182.134 104.007 182.831 103.585 183.443ZM140.711 133.026L135.566 138.413C134.696 139.238 134.076 139.455 133.707 139.065C133.337 138.675 133.505 137.861 134.211 136.623C135.499 134.377 135.695 131.999 134.797 129.49C131.421 120.218 127.544 110.51 123.168 100.364C122.648 99.0341 122.189 98.1593 121.791 97.7393C121.45 97.3793 121.295 97.1851 121.325 97.1566C122.033 95.8015 122.379 94.9044 122.362 94.4654C122.338 94.2601 122.328 94.099 122.331 93.9821C122.305 93.8353 122.279 93.7176 122.253 93.6292C122.147 93.217 122.124 92.9825 122.184 92.9256C122.334 92.7835 122.683 92.8513 123.231 93.1292C127.639 95.5573 132.408 98.156 137.538 100.925C142.669 103.636 148.162 106.517 154.015 109.569C156.149 110.679 157.845 111.207 159.104 111.153C160.364 111.04 161.589 110.591 162.78 109.804C163.971 109.017 164.808 108.879 165.291 109.389C165.575 109.689 165.282 110.251 164.412 111.076L157.901 116.734L153.219 121.257C152.349 122.082 151.743 122.314 151.402 121.954C150.975 121.504 151.2 120.75 152.077 119.691C153.622 117.657 153.898 116.115 152.903 115.065C152.107 114.225 149.305 112.41 144.497 109.62C144.094 109.375 143.533 109.594 142.813 110.277L134.217 118.422C133.887 118.735 133.888 119.247 134.22 119.957C136.261 124.515 137.623 127.154 138.305 127.874C138.931 128.534 139.697 128.861 140.603 128.856C141.511 128.793 142.514 128.469 143.612 127.885C144.709 127.3 145.414 127.173 145.727 127.503C146.04 127.833 145.761 128.41 144.891 129.235L140.711 133.026ZM132.445 115.831C132.644 116.041 133.059 115.848 133.689 115.251L140.664 108.64C141.084 108.242 141.223 107.968 141.081 107.818L140.564 107.453L126.816 100.067C126.124 99.6976 125.748 99.5413 125.688 99.5982C125.598 99.6835 125.705 100.066 126.008 100.747L132.194 115.386L132.445 115.831ZM227.984 65.6626C228.352 66.3564 228.12 67.1108 227.289 67.9258C226.495 68.7215 225.587 69.3904 224.564 69.9327C222.848 70.8429 221.074 71.2923 219.244 71.2807C217.449 71.2498 215.704 70.9589 214.008 70.4079C212.313 69.8569 210.763 69.2285 209.359 68.5226C207.936 67.7801 206.766 67.1611 205.848 66.6654C204.93 66.1697 204.077 65.7094 203.291 65.2845C202.54 64.8403 201.884 64.44 201.32 64.0837C198.996 62.7897 196.095 62.8316 192.614 64.2094L192.505 64.2675C192.03 64.5193 191.987 65.0103 192.374 65.7407L197.37 75.1617C198.804 77.8638 200.86 78.7852 203.539 77.9258C204.86 77.5058 205.627 77.4966 205.84 77.8983C206.072 78.3365 205.659 78.8364 204.6 79.398C204.089 79.6692 203.568 79.922 203.037 80.1567C202.507 80.3913 201.985 80.598 201.471 80.7767C200.5 81.1513 199.686 81.5129 199.029 81.8615L192.112 86.0214C191.053 86.583 190.407 86.6447 190.175 86.2066C189.962 85.8049 190.445 85.1277 191.624 84.1748C192.822 83.2586 193.577 82.3437 193.888 81.4302C194.179 80.4802 193.976 79.3479 193.279 78.0334L181.02 54.9191C180.09 53.1663 179.184 51.9862 178.3 51.3787C177.417 50.7713 176.278 50.6969 174.883 51.1557C173.489 51.6144 172.657 51.5882 172.385 51.0769C172.172 50.6753 172.595 50.1936 173.654 49.632L179.051 46.8399L185.205 43.2253C193.421 38.8678 199.117 39.6834 202.293 45.6719C204.384 49.6156 203.857 53.8255 200.71 58.3017C200.603 58.4522 200.578 58.5822 200.636 58.6918C200.656 58.7283 200.703 58.7734 200.778 58.827C200.89 58.8613 200.993 58.9236 201.088 59.0137C202.586 59.8098 203.804 60.474 204.741 61.0062C205.659 61.5019 206.483 61.9536 207.214 62.3613C207.962 62.7132 208.729 63.0554 209.513 63.3878C210.298 63.7203 211.288 64.1311 212.483 64.6201C213.678 65.1092 214.854 65.5617 216.01 65.9777C217.203 66.3743 218.395 66.7248 219.585 67.029C220.868 67.3311 222.024 67.3495 223.054 67.0845C224.083 66.8194 225.346 66.2899 226.843 65.4958C227.391 65.2053 227.771 65.2609 227.984 65.6626ZM189.992 61.2492C190.437 62.0891 190.937 62.5024 191.491 62.4891C192.046 62.4758 192.853 62.1883 193.911 61.6267C195.555 60.7552 196.785 59.6347 197.603 58.2653C198.457 56.8765 198.892 55.3592 198.908 53.7132C198.924 52.0671 198.516 50.4591 197.683 48.8889C196.424 46.5154 194.878 44.8791 193.044 43.9801C191.247 43.0618 188.924 43.3579 186.076 44.8685C184.689 45.6044 183.893 46.3539 183.69 47.1169C183.522 47.8605 183.672 48.7167 184.139 49.6854C185.015 51.5134 185.939 53.3865 186.909 55.3047C187.88 57.2229 188.907 59.2044 189.992 61.2492ZM281.762 47.271C281.489 48.3104 281.23 48.8472 280.984 48.8814C280.739 48.9155 280.358 48.4259 279.841 47.4127C278.217 44.1331 276.159 40.2877 273.669 35.8765C271.219 31.4597 268.318 26.5005 264.966 20.9988C264.74 20.5712 264.545 20.3688 264.381 20.3916C264.217 20.4143 264.146 20.6537 264.168 21.1098C264.184 26.0317 264.293 30.4191 264.494 34.272C264.69 38.084 264.976 41.341 265.352 44.0431C265.488 45.0256 265.952 45.9627 266.744 46.8542C267.535 47.7457 268.624 48.2204 270.009 48.2783C271.394 48.3362 272.118 48.5903 272.18 49.0407C272.249 49.532 271.689 49.8601 270.502 50.0251L264.687 50.5202L259.141 51.6039C257.954 51.7689 257.326 51.6057 257.258 51.1144C257.195 50.6641 257.822 50.2222 259.139 49.7889C261.217 49.1246 262.264 47.3515 262.281 44.4698C262.224 38.0512 262.09 32.5823 261.879 28.063C261.709 23.5379 261.442 19.9653 261.078 17.3452L260.82 15.9413C260.741 15.3681 260.462 14.8644 259.984 14.43C259.501 13.9547 259.081 13.6374 258.725 13.4782C258.41 13.3133 258.019 13.2008 257.552 13.1405C257.079 13.0394 256.693 12.9678 256.395 12.9257C256.226 12.9075 256.036 12.8922 255.825 12.8797C255.65 12.8206 255.437 12.7876 255.186 12.7808C254.683 12.7672 254.239 12.7246 253.853 12.653C253.509 12.5757 253.302 12.2914 253.234 11.8001C253.171 11.3497 253.611 11.0591 254.553 10.9283L264.815 10.0029C265.347 9.92897 266.068 11.0599 266.977 13.3957C267.173 13.9108 267.338 14.347 267.471 14.704C267.64 15.0145 267.756 15.2488 267.819 15.4068L280.944 38.6838C281.275 39.2638 281.564 39.5367 281.809 39.5025C282.014 39.4741 282.205 39.1972 282.382 38.6717L290.981 11.8125C291.064 11.5089 291.121 11.1671 291.152 10.7873C291.223 10.4018 291.269 9.97813 291.288 9.51641C291.361 7.33633 291.581 6.22069 291.95 6.16949L294.16 5.86227C294.652 5.79399 295.222 5.69387 295.871 5.5619C296.521 5.42993 297.249 5.26611 298.056 5.07045C298.864 4.87478 299.49 4.72519 299.935 4.62166C300.42 4.51245 300.745 4.44647 300.909 4.42371L301.093 4.39811C301.953 4.27863 302.411 4.42359 302.468 4.83299C302.519 5.20145 302.298 5.56595 301.806 5.92649C301.354 6.28134 300.815 6.60663 300.189 6.90236C299.598 7.15146 299.147 7.36018 298.836 7.52852C298.327 7.76623 297.779 8.17625 297.192 8.75856C296.605 9.34087 296.354 9.93907 296.44 10.5532C296.821 13.2961 297.254 16.1153 297.74 19.0107C298.267 21.9003 298.843 24.8457 299.469 27.8468C300.72 33.849 301.492 37.6018 301.785 39.1052C302.071 40.5677 302.611 41.5986 303.404 42.1978C304.232 42.7504 305.4 43.0472 306.908 43.088C308.386 43.2164 309.154 43.4853 309.211 43.8947C309.279 44.386 308.719 44.7141 307.532 44.8791L300.304 45.5705L293.899 46.7736C292.712 46.9386 292.087 46.796 292.024 46.3456C291.945 45.7725 292.528 45.3158 293.774 44.9757C295.021 44.6356 295.824 44.1067 296.183 43.3891C296.542 42.6714 296.62 41.5757 296.415 40.1019C295.857 36.0898 294.565 28.5909 292.537 17.6054C292.446 16.9504 292.298 16.6371 292.094 16.6656C291.93 16.6883 291.75 17.0471 291.555 17.742L281.762 47.271ZM354.901 38.7238C354.744 39.6613 354.285 40.4015 353.523 40.9442C352.761 41.487 351.912 41.6797 350.974 41.5224C350.036 41.365 349.296 40.9055 348.754 40.1438C348.211 39.3822 348.018 38.5326 348.175 37.595C348.333 36.6575 348.792 35.9173 349.554 35.3745C350.316 34.8318 351.165 34.6391 352.103 34.7964C353.04 34.9538 353.781 35.4133 354.323 36.1749C354.866 36.9366 355.059 37.7862 354.901 38.7238ZM401.883 52.1336L394.101 49.0377C393.042 48.5704 392.613 48.1098 392.813 47.656C392.996 47.2401 393.554 47.1023 394.486 47.2425C396.17 47.6243 397.524 47.6795 398.547 47.4083C399.57 47.137 400.349 46.3964 400.883 45.1863L412.499 18.8676C413.083 17.5441 413.251 16.6015 413.001 16.0398C412.752 15.4781 412.006 14.7644 410.761 13.8989C409.5 13.0712 408.986 12.3927 409.22 11.8633C409.403 11.4473 410.044 11.4814 411.14 11.9653L417.418 14.9393L424.64 17.9234C425.736 18.4074 426.193 18.8573 426.009 19.2733C425.759 19.8405 425.071 19.9661 423.946 19.65C422.803 19.3718 421.961 19.1809 421.42 19.0774C420.916 18.9906 420.33 18.9355 419.663 18.912C418.496 18.8941 417.679 19.4145 417.212 20.4733L405.421 47.189C404.87 48.4369 404.762 49.4507 405.095 50.2304C405.429 51.0102 406.484 51.7922 408.261 52.5766L416.543 56.2316C416.694 56.2983 417.233 56.3557 418.161 56.4036C420.495 56.4395 422.806 55.4494 425.097 53.4332C426.014 52.4824 426.699 52.1071 427.153 52.3074C427.568 52.4909 427.626 52.9231 427.326 53.6037C427.271 53.6248 427.227 53.6732 427.194 53.7488L427.144 53.8623C424.893 56.7093 423.323 58.8852 422.433 60.39C422.074 60.9995 421.667 61.2041 421.214 61.0038L401.883 52.1336ZM462.773 81.7887L456.273 77.2262C455.319 76.4998 454.993 75.9394 455.293 75.5448C455.569 75.1831 456.402 75.3506 457.794 76.0472C459.128 76.7516 460.308 77.0787 461.333 77.0286C462.384 76.9455 463.335 76.345 464.187 75.2271L481.169 52.9346C482.045 51.7838 482.425 50.774 482.307 49.9051C482.223 49.0612 481.693 48.0859 480.717 46.9791C479.684 45.8801 479.343 45.1004 479.693 44.6401C479.969 44.2785 480.583 44.4608 481.537 45.1872L487.194 49.7309L492.683 53.6782C493.637 54.4046 493.976 54.9486 493.7 55.3103C493.349 55.7706 492.507 55.6485 491.173 54.9441C489.814 54.2726 488.671 53.9995 487.744 54.1248C486.843 54.2172 485.966 54.8224 485.114 55.9403L468.132 78.2328C467.281 79.3507 466.954 80.4271 467.153 81.4619C467.41 82.489 468.072 83.5645 469.138 84.6885C470.146 85.8204 470.513 86.5671 470.237 86.9288C469.936 87.3234 469.309 87.1575 468.356 86.4311L462.773 81.7887ZM511.272 124.233L505.852 118.428C505.069 117.52 504.865 116.905 505.241 116.581C505.585 116.284 506.337 116.617 507.497 117.582C509.96 119.551 512.193 119.671 514.196 117.943L535.553 99.512C536.554 98.6479 537.002 97.9335 536.897 97.369C536.824 96.7775 536.341 95.9654 535.45 94.9327L532.129 91.0838C531.426 90.2702 530.608 89.6386 529.674 89.1889C528.74 88.7392 527.931 88.5917 527.245 88.7465C526.528 88.9282 525.791 88.9912 525.033 88.9355C524.302 88.911 523.802 88.7423 523.532 88.4294C523.343 88.2104 523.436 87.9388 523.812 87.6148C524.093 87.3717 524.489 87.1664 525 86.9988C527.002 86.472 529.157 85.4583 531.466 83.9576C532.266 83.4304 532.856 83.3858 533.234 83.8239C533.45 84.0743 533.287 84.8975 532.745 86.2936C532.416 87.1779 533.048 88.5432 534.641 90.3894L550.074 108.273C551.101 109.462 552.103 110.18 553.081 110.428C553.453 110.544 553.931 110.623 554.514 110.665C555.124 110.74 555.602 110.819 555.947 110.903C556.324 110.96 556.607 111.098 556.796 111.317C556.985 111.536 556.72 111.956 556 112.577L555.537 112.895C554.288 113.536 553.219 114.131 552.329 114.681C551.47 115.204 550.774 115.695 550.242 116.154L549.679 116.64C549.366 116.91 548.97 117.115 548.491 117.256C548.038 117.428 547.718 117.404 547.529 117.185C547.232 116.841 547.617 115.99 548.684 114.633C549.934 113.171 549.317 111.001 546.832 108.122C545.59 106.683 544.521 105.476 543.626 104.502C542.731 103.527 542.009 102.786 541.46 102.276C540.996 101.803 540.108 102.133 538.793 103.267L517.437 121.698C515.403 123.453 515.249 125.742 516.975 128.565C517.679 129.76 517.858 130.506 517.514 130.803C517.139 131.127 516.559 130.835 515.776 129.928L511.272 124.233ZM551.88 173.594L547.777 167.751C547.14 166.735 547.032 166.096 547.452 165.832C547.837 165.591 548.548 166.024 549.583 167.13C550.584 168.259 551.551 168.946 552.485 169.19C553.475 169.447 554.583 169.191 555.809 168.423L579.447 153.601C580.672 152.833 581.383 152.021 581.579 151.166C581.832 150.325 581.697 149.214 581.173 147.835C580.593 146.443 580.548 145.593 581.038 145.285C581.423 145.044 581.934 145.431 582.571 146.446L588.243 155.843L595.713 167.405C596.086 168 596.126 168.414 595.833 168.647C593.326 170.951 591.757 172.3 591.127 172.696C590.461 173.113 589.975 173.076 589.667 172.586C589.492 172.306 589.546 172.003 589.83 171.679C590.731 170.626 591.37 169.738 591.746 169.014C592.178 168.304 592.342 167.592 592.235 166.878C592.186 166.177 591.843 165.318 591.206 164.303L586.892 157.422C586.672 157.072 586.244 156.779 585.609 156.543C585.008 156.285 584.48 156.299 584.025 156.585L572.889 163.567C572.574 163.765 572.349 164.028 572.213 164.357C572.135 164.699 572.173 164.992 572.326 165.237L575.488 170.28C576.476 171.856 577.829 172.496 579.546 172.2C579.73 172.182 579.993 172.212 580.335 172.291C580.734 172.382 580.977 172.498 581.065 172.638C581.131 172.743 581.12 172.92 581.033 173.17C581.002 173.433 580.865 173.642 580.62 173.795L577.632 175.449L574.126 177.794C573.53 178.167 573.134 178.196 572.936 177.881C572.607 177.356 572.757 176.701 573.387 175.915C574.633 174.402 574.916 173.103 574.236 172.017L571.172 167.132C570.755 166.466 570.371 166.049 570.021 165.878C569.692 165.743 569.247 165.851 568.687 166.202L558.602 172.526C557.306 173.339 556.56 174.172 556.364 175.027C556.19 175.916 556.487 176.974 557.256 178.2L560.681 183.663C561.472 184.923 562.209 185.827 562.894 186.374C563.578 186.92 564.36 187.235 565.241 187.317C566.179 187.412 567.373 187.37 568.823 187.193C569.305 187.184 569.644 187.336 569.842 187.652C570.105 188.072 570.045 188.403 569.659 188.644C568.959 189.083 568.099 189.501 567.078 189.897C566.115 190.306 564.985 190.721 563.689 191.144C562.984 191.342 562.533 191.283 562.335 190.968L551.88 173.594Z" fill="black"/>
<path d="M557.955 359.485C566.29 323.698 566.061 286.449 557.287 250.767C548.513 215.085 531.442 181.977 507.462 154.136C483.481 126.295 453.269 104.506 419.281 90.5413C385.293 76.5766 348.489 70.8304 311.862 73.7698C275.235 76.7092 239.819 88.2513 208.493 107.457C177.167 126.664 150.816 152.992 131.583 184.301C112.349 215.61 100.777 251.017 97.8056 287.641C94.8345 324.266 100.549 361.075 114.484 395.075L128.43 389.359C115.394 357.554 110.048 323.121 112.827 288.86C115.607 254.599 126.433 221.478 144.424 192.19C162.416 162.901 187.066 138.273 216.37 120.306C245.674 102.34 278.805 91.5424 313.068 88.7928C347.331 86.0431 381.759 91.4184 413.553 104.482C445.348 117.545 473.61 137.928 496.042 163.972C518.475 190.016 534.444 220.987 542.652 254.366C550.859 287.745 551.073 322.589 543.276 356.067L557.955 359.485Z" fill="black"/>
<path d="M197.041 498.521C155.441 470.921 130.374 429.354 123.041 412.021C254.641 380.421 356.541 415.521 391.041 437.021C293.041 433.021 220.874 476.354 197.041 498.521Z" fill="#17D917"/>
<path d="M208.041 505.02C290.841 447.82 369.874 443.52 399.041 448.52C360.241 477.719 334.541 522.02 326.541 540.52C265.341 540.12 222.041 516.687 208.041 505.02Z" fill="#17D917"/>
<path d="M340.541 540.52C356.708 498.853 418.541 414.22 536.541 409.02C517.874 451.853 452.541 538.12 340.541 540.52Z" fill="#17D917"/>
<path d="M415.541 437.021C409.541 433.422 398.708 428.187 394.041 426.02C464.841 386.82 523.874 386.687 544.541 391.52L541.541 398.52C481.541 398.52 432.541 424.187 415.541 437.021Z" fill="#17D917"/>
<path d="M326.541 401.021C340.941 404.621 370.541 415.521 383.541 420.521C441.541 377.32 517.708 376.854 548.541 382.021L552.041 372.021C462.441 348.821 364.374 381.687 326.541 401.021Z" fill="#17D917"/>
<path d="M433.541 357.521V322.521H484.041V355.021H512.541V322.521L493.541 296.021L457.041 280.521L422.541 296.021L403.041 322.521V362.521C412.641 359.321 427.374 357.855 433.541 357.521Z" fill="#17D917"/>
<path d="M458.041 341.521L443.541 328.521H473.541L458.041 341.521Z" fill="#17D917"/>
<path d="M439.541 357.521V333.021L454.041 345.521L439.541 357.521Z" fill="#17D917"/>
<path d="M451.041 355.021L458.041 349.521L464.541 355.021H451.041Z" fill="#17D917"/>
<path d="M463.041 344.521L476.541 333.021V354.021L463.041 344.521Z" fill="#17D917"/>
<path d="M393.541 317.021L399.041 318.521L419.541 291.021L458.041 273.521L497.541 291.021L517.541 318.521L523.041 317.021L500.541 286.521L458.041 267.521L415.541 286.521L393.541 317.021Z" fill="#17D917"/>
<path fill-rule="evenodd" clip-rule="evenodd" d="M272.593 390.499C272.593 390.499 267.975 384.334 266.565 378.168C265.156 372.002 268.758 364.743 269.306 358.734C269.306 358.734 269.306 357.29 270.441 357.446C271.576 357.602 275.843 359.319 277.331 355.963C278.818 352.607 283.828 351.904 284.769 346.441C285.708 340.978 290.25 319.669 301.053 318.733C311.858 317.797 318.435 318.304 321.567 319.28C324.699 320.255 325.716 317.796 327.439 317.25C329.161 316.703 331.041 316.079 331.041 313.308C331.041 310.538 330.61 308.977 327.518 306.987C324.425 304.997 323.329 304.216 322.781 303.084C322.233 301.953 320.432 299.221 318.945 297.621C318.945 297.621 320.589 295.475 319.767 293.523C318.945 291.572 317.065 292.508 316.087 291.377C315.108 290.246 313.229 287.396 313.229 287.396C313.229 287.396 322.154 283.806 318.475 271.553C318.475 271.553 318.122 274.87 316.4 277.523C314.677 280.177 311.585 283.533 308.531 284.001C305.478 284.47 302.62 284.743 301.328 283.104C300.037 281.465 300.35 280.021 301.993 276.899C303.638 273.777 305.282 269.406 302.386 264.021C302.386 264.021 302.62 267.611 297.531 274.48C292.442 281.348 292.99 284.939 297.766 287.982C297.766 287.982 294.243 285.875 291.19 286.811C288.136 287.748 291.19 291.572 292.677 292.275C292.677 292.275 285.944 293.523 281.403 293.523C276.862 293.523 260.89 289.153 247.267 293.056C233.644 296.958 216.341 295.397 211.017 295.397C205.693 295.397 200.526 295.515 196.964 292.978C193.402 290.441 191.679 288.919 187.529 292.119C183.38 295.319 181.736 292.276 179.269 293.368C176.803 294.461 170.383 297.036 171.4 315.222C172.419 333.408 173.358 338.715 171.791 344.646C170.226 350.578 166.39 351.28 165.215 356.431C164.041 361.583 166.859 364.159 164.041 368.608C164.041 368.608 166.859 366.656 168.895 361.817C168.895 361.817 169.522 366.812 165.842 371.495C165.842 371.495 171.401 370.949 174.532 363.691C177.664 356.431 173.28 351.124 173.28 351.124C173.28 351.124 177.821 338.793 176.881 325.602C175.942 312.412 177.586 307.73 177.586 307.73C177.586 307.73 182.361 323.495 181.892 331.456C181.422 339.417 184.397 344.256 182.205 349.798C180.012 355.339 183.301 361.973 184.476 365.407C185.65 368.842 187.451 385.622 188.077 388.041C188.703 390.461 200.134 388.509 200.134 388.509L203.188 386.558C203.188 386.558 196.375 382.109 194.497 371.807C192.618 361.505 198.099 352.685 202.013 346.285C202.013 346.285 204.362 347.846 208.12 351.905C211.878 355.963 214.541 363.768 217.985 364.08C221.43 364.392 222.37 356.899 226.44 356.275C230.512 355.65 239.125 355.573 246.64 352.061C254.156 348.549 256.348 350.499 256.976 356.509C257.601 362.519 259.716 367.748 259.559 370.792C259.403 373.836 255.096 389.524 255.096 389.524L268.446 392.021L272.593 390.499Z" fill="black"/>
<path fill-rule="evenodd" clip-rule="evenodd" d="M359.54 368.57C359.54 368.57 360.923 366.739 361.345 364.909C361.767 363.078 360.689 360.923 360.525 359.139C360.525 359.139 360.525 358.71 360.185 358.757C359.845 358.803 358.567 359.313 358.122 358.317C357.677 357.32 356.177 357.112 355.895 355.49C355.614 353.868 354.254 347.542 351.019 347.264C347.784 346.986 345.815 347.136 344.878 347.426C343.94 347.716 343.635 346.986 343.119 346.824C342.604 346.661 342.041 346.476 342.041 345.654C342.041 344.831 342.17 344.368 343.096 343.777C344.022 343.186 344.35 342.954 344.514 342.618C344.678 342.282 345.217 341.471 345.663 340.996C345.663 340.996 345.17 340.359 345.417 339.78C345.663 339.201 346.225 339.479 346.518 339.143C346.811 338.807 347.374 337.961 347.374 337.961C347.374 337.961 344.702 336.895 345.803 333.257C345.803 333.257 345.909 334.242 346.424 335.03C346.94 335.818 347.866 336.814 348.781 336.953C349.695 337.092 350.55 337.173 350.937 336.687C351.324 336.2 351.23 335.771 350.738 334.845C350.245 333.918 349.753 332.62 350.62 331.021C350.62 331.021 350.55 332.087 352.074 334.126C353.598 336.165 353.433 337.231 352.004 338.135C352.004 338.135 353.058 337.509 353.972 337.787C354.887 338.065 353.972 339.201 353.527 339.409C353.527 339.409 355.543 339.78 356.903 339.78C358.262 339.78 363.044 338.482 367.123 339.641C371.202 340.8 376.382 340.336 377.976 340.336C379.57 340.336 381.117 340.371 382.184 339.618C383.25 338.865 383.766 338.413 385.009 339.363C386.251 340.313 386.743 339.409 387.482 339.734C388.22 340.058 390.142 340.823 389.838 346.222C389.533 351.621 389.252 353.196 389.721 354.957C390.189 356.718 391.338 356.926 391.689 358.456C392.041 359.985 391.197 360.75 392.041 362.071C392.041 362.071 391.197 361.491 390.588 360.055C390.588 360.055 390.4 361.537 391.502 362.928C391.502 362.928 389.838 362.766 388.9 360.611C387.962 358.456 389.275 356.88 389.275 356.88C389.275 356.88 387.915 353.219 388.197 349.303C388.478 345.388 387.986 343.997 387.986 343.997C387.986 343.997 386.556 348.678 386.697 351.041C386.837 353.404 385.946 354.841 386.603 356.486C387.259 358.131 386.275 360.101 385.923 361.12C385.571 362.14 385.032 367.122 384.845 367.84C384.657 368.558 381.235 367.979 381.235 367.979L380.32 367.4C380.32 367.4 382.36 366.079 382.922 363.02C383.485 359.962 381.844 357.343 380.672 355.443C380.672 355.443 379.969 355.907 378.844 357.112C377.719 358.317 376.921 360.634 375.89 360.726C374.859 360.819 374.577 358.595 373.359 358.409C372.14 358.224 369.561 358.201 367.311 357.158C365.06 356.116 364.404 356.695 364.216 358.479C364.029 360.263 363.396 361.815 363.443 362.719C363.49 363.623 364.779 368.28 364.779 368.28L360.782 369.021L359.54 368.57Z" fill="black"/>
<path d="M326.04 177.021C240.84 179.021 230.207 226.855 235.54 250.521C243.541 229.721 269.874 210.855 282.04 204.021C256.84 225.621 246.207 248.688 244.04 257.521C268.54 260.021 302.796 243.521 306.54 220.521C309.301 203.563 321.04 184.521 326.04 177.021Z" fill="#29EB1F"/>
<path d="M171.041 215.064C223.031 212.05 231.862 240.453 229.778 255.032C223.882 242.848 206.915 232.743 199.169 229.213C215.58 241.028 223.192 254.451 224.946 259.687C210.147 262.413 188.472 254.132 185.059 240.407C182.543 230.287 174.456 219.352 171.041 215.064Z" fill="#29EB1F"/>
</svg>
