<svg width="609" height="607" viewBox="0 0 609 607" fill="none" xmlns="http://www.w3.org/2000/svg">
<path d="M64.2669 193.044L60.8048 200.06C60.2156 201.104 59.705 201.504 59.2731 201.26C58.8771 201.037 58.9189 200.206 59.3984 198.768C59.8935 197.386 59.9953 196.281 59.7039 195.452C59.3967 194.567 58.5952 193.758 57.2994 193.027L34.5145 180.166C32.7868 179.191 31.3871 178.685 30.3154 178.65C29.2437 178.615 28.2443 179.166 27.3172 180.304C26.3901 181.442 25.6746 181.868 25.1707 181.584C24.7747 181.36 24.8713 180.727 25.4606 179.683L30.8645 170.488L35.9679 161.194L37.1565 159.088L37.5596 158.248C37.905 157.636 38.2499 157.403 38.5941 157.55C39.1387 157.763 39.8891 158.115 40.8453 158.607C41.7858 159.043 42.886 159.617 44.1458 160.328C44.9017 160.755 45.1882 161.13 45.0053 161.454C44.7615 161.886 44.3932 162.034 43.9003 161.898C42.3607 161.599 41.048 161.57 39.9624 161.811C38.8971 162.017 37.9276 162.893 37.054 164.441L33.1835 171.298C32.8787 171.838 32.7992 172.315 32.945 172.73C33.0907 173.144 33.3052 173.479 33.5886 173.734C33.8922 173.953 34.3836 174.301 35.0629 174.78C35.4025 175.019 35.9863 175.372 36.8142 175.839C37.6061 176.286 38.6319 176.865 39.8918 177.577C41.1156 178.267 42.1594 178.857 43.0233 179.344C43.8512 179.812 44.4733 180.139 44.8896 180.326C45.7174 180.794 46.233 180.847 46.4361 180.487L49.8094 174.133C50.7237 172.513 50.6415 171.019 49.5628 169.651C49.4594 169.497 49.3607 169.252 49.2666 168.914C49.1569 168.52 49.1427 168.251 49.2239 168.107C49.2849 167.999 49.4561 167.906 49.7377 167.827C49.9066 167.78 50.2251 167.889 50.693 168.153C51.161 168.417 51.6187 168.699 52.0663 168.999C52.478 169.279 52.9357 169.561 53.4397 169.846C54.2316 170.293 55.4499 170.909 57.0946 171.695C57.7065 172.04 57.9211 172.375 57.7382 172.699C57.4334 173.239 56.7858 173.419 55.7954 173.24C54.1275 172.916 52.9481 173.365 52.2573 174.589C52.2573 174.589 52.1253 174.823 51.8611 175.291C51.6173 175.723 51.2235 176.379 50.6795 177.258C50.456 177.654 50.1896 178.168 49.8802 178.8C49.5551 179.376 49.1972 180.052 48.8065 180.829C48.3549 181.713 48.561 182.399 49.4249 182.886C53.8883 185.406 57.3383 187.282 59.7749 188.515C61.0394 189.134 62.1558 189.384 63.1242 189.266C64.0768 189.092 65.0066 188.454 65.9133 187.352C66.8201 186.25 67.4714 185.811 67.8674 186.034C68.2993 186.278 68.2207 186.922 67.6315 187.966C67.347 188.47 67.0446 188.964 66.7242 189.447C66.4037 189.931 66.0754 190.386 65.7393 190.814C65.1234 191.653 64.6326 192.396 64.2669 193.044ZM97.0763 139.934L92.1054 145.482C91.2619 146.334 90.6493 146.571 90.2675 146.193C89.8857 145.815 90.0279 144.996 90.694 143.736C91.9104 141.45 92.0304 139.067 91.0538 136.588C87.3851 127.428 83.2029 117.847 78.5072 107.845C77.9455 106.533 77.459 105.673 77.0479 105.266C76.6954 104.917 76.5338 104.727 76.5629 104.698C77.2284 103.321 77.5455 102.414 77.5141 101.975C77.4839 101.771 77.4685 101.61 77.468 101.493C77.438 101.347 77.4082 101.23 77.3786 101.143C77.2597 100.734 77.2293 100.501 77.2875 100.442C77.4329 100.295 77.7839 100.352 78.3405 100.612C82.8234 102.899 87.6724 105.346 92.8876 107.951C98.1024 110.497 103.683 113.203 109.63 116.068C111.798 117.109 113.51 117.583 114.767 117.489C116.023 117.337 117.233 116.849 118.398 116.025C119.564 115.201 120.396 115.036 120.895 115.531C121.189 115.821 120.914 116.393 120.07 117.244L113.742 123.106L109.205 127.775C108.362 128.627 107.764 128.878 107.411 128.529C106.971 128.093 107.172 127.332 108.014 126.247C109.494 124.164 109.721 122.614 108.693 121.596C107.871 120.782 105.012 119.057 100.119 116.421C99.7084 116.189 99.1542 116.425 98.4561 117.13L90.1234 125.544C89.8034 125.867 89.8205 126.379 90.1747 127.079C92.3593 131.569 93.804 134.163 94.5089 134.861C95.155 135.501 95.931 135.804 96.8369 135.771C97.7425 135.679 98.7345 135.323 99.8129 134.704C100.891 134.085 101.592 133.935 101.915 134.255C102.238 134.575 101.978 135.161 101.135 136.013L97.0763 139.934ZM88.2697 123.011C88.4753 123.214 88.8835 123.008 89.4943 122.391L96.2565 115.563C96.6637 115.151 96.7938 114.873 96.647 114.728L96.1192 114.38L82.144 107.433C81.4408 107.086 81.0602 106.941 81.002 107C80.9147 107.088 81.0335 107.468 81.3583 108.138L88.0046 122.573L88.2697 123.011ZM182.461 70.4617C182.84 71.1492 182.622 71.9074 181.804 72.7362C181.023 73.545 180.126 74.2291 179.113 74.7884C177.412 75.7272 175.646 76.2061 173.816 76.2252C172.021 76.2243 170.271 75.9626 168.567 75.44C166.862 74.9175 165.302 74.315 163.886 73.6327C162.451 72.9141 161.271 72.3147 160.344 71.8345C159.418 71.3542 158.558 70.9082 157.765 70.4965C157.007 70.0649 156.344 69.6757 155.775 69.3289C153.429 68.0739 150.529 68.1643 147.072 69.6002L146.964 69.6601C146.493 69.9198 146.458 70.4115 146.857 71.1352L152.011 80.4713C153.489 83.1491 155.56 84.036 158.224 83.1319C159.538 82.6899 160.305 82.6679 160.525 83.066C160.764 83.5002 160.359 84.007 159.31 84.5862C158.803 84.8659 158.287 85.1274 157.76 85.3709C157.234 85.6143 156.715 85.8297 156.205 86.017C155.24 86.4078 154.432 86.783 153.781 87.1425L146.934 91.4175C145.885 91.9967 145.24 92.0692 145.001 91.635C144.781 91.2369 145.252 90.5517 146.415 89.5793C147.598 88.6431 148.337 87.7158 148.633 86.7972C148.909 85.8425 148.687 84.7138 147.968 83.411L135.324 60.505C134.365 58.768 133.439 57.6032 132.545 57.0106C131.652 56.418 130.512 56.3627 129.125 56.8447C127.739 57.3267 126.906 57.3144 126.626 56.8078C126.406 56.4097 126.821 55.9211 127.871 55.3418L133.22 52.4598L139.313 48.7429C147.454 44.2486 153.163 44.9688 156.439 50.9034C158.596 54.8115 158.139 59.0297 155.068 63.5579C154.963 63.7101 154.94 63.8405 155 63.9491C155.02 63.9853 155.068 64.0296 155.145 64.082C155.257 64.1144 155.361 64.1749 155.457 64.2635C156.969 65.0344 158.197 65.6781 159.143 66.1946C160.07 66.6749 160.901 67.1127 161.639 67.5082C162.393 67.8475 163.165 68.1768 163.955 68.4961C164.745 68.8154 165.741 69.2096 166.944 69.6786C168.148 70.1475 169.331 70.5803 170.494 70.977C171.693 71.3536 172.891 71.6841 174.086 71.9684C175.374 72.2489 176.53 72.248 177.555 71.9658C178.579 71.6836 179.834 71.133 181.317 70.314C181.86 70.0144 182.241 70.0636 182.461 70.4617ZM144.4 66.6842C144.86 67.5165 145.366 67.9214 145.92 67.8988C146.475 67.8762 147.276 67.5753 148.326 66.9961C149.954 66.0972 151.166 64.9563 151.96 63.5735C152.791 62.1706 153.201 60.6461 153.189 59.0001C153.178 57.3541 152.742 55.753 151.884 54.197C150.585 51.8449 149.012 50.2347 147.163 49.3665C145.351 48.4783 143.034 48.8132 140.211 50.3712C138.836 51.1303 138.053 51.8929 137.863 52.6592C137.708 53.4055 137.872 54.2591 138.355 55.2199C139.262 57.033 140.216 58.8904 141.219 60.7921C142.221 62.6937 143.282 64.6578 144.4 66.6842ZM235.752 50.2428C235.534 51.2952 235.304 51.8449 235.06 51.892C234.817 51.9391 234.41 51.4703 233.841 50.4858C232.046 47.2966 229.788 43.5653 227.068 39.2919C224.388 35.0107 221.229 30.2117 217.591 24.8948C217.342 24.4798 217.137 24.2879 216.975 24.3193C216.812 24.3507 216.754 24.5935 216.8 25.0477C217.076 29.962 217.417 34.3375 217.822 38.1744C218.219 41.9707 218.676 45.2081 219.194 47.8865C219.382 48.8605 219.895 49.7717 220.732 50.6201C221.57 51.4686 222.682 51.8851 224.068 51.8698C225.455 51.8544 226.191 52.0699 226.277 52.5163C226.371 53.0033 225.83 53.3605 224.653 53.588L218.872 54.3897L213.391 55.7649C212.215 55.9924 211.579 55.8626 211.485 55.3756C211.399 54.9292 212.002 54.4548 213.294 53.9525C215.333 53.1793 216.285 51.3534 216.15 48.4748C215.754 42.0683 215.331 36.6141 214.882 32.1122C214.473 27.6024 214.018 24.0489 213.515 21.4517L213.184 20.0634C213.074 19.4952 212.769 19.0069 212.269 18.5983C211.762 18.1492 211.326 17.8546 210.962 17.7144C210.638 17.5664 210.242 17.4747 209.772 17.4392C209.294 17.3632 208.905 17.3121 208.606 17.2858C208.435 17.2766 208.245 17.2713 208.034 17.27C207.856 17.2202 207.642 17.1985 207.39 17.205C206.888 17.218 206.442 17.1989 206.053 17.1477C205.705 17.0888 205.484 16.8158 205.39 16.3288C205.303 15.8824 205.727 15.569 206.66 15.3885L216.859 13.9222C217.387 13.8203 218.166 14.9115 219.197 17.196C219.421 17.7001 219.609 18.1269 219.76 18.4764C219.945 18.7775 220.073 19.0053 220.145 19.1598L234.481 41.7108C234.843 42.2725 235.145 42.5298 235.388 42.4827C235.591 42.4435 235.767 42.1569 235.917 41.6228L243.084 14.3467C243.151 14.0391 243.19 13.6949 243.201 13.3139C243.252 12.9252 243.275 12.4997 243.27 12.0376C243.227 9.85677 243.388 8.73103 243.753 8.66043L245.945 8.23682C246.432 8.14269 246.996 8.01258 247.638 7.84648C248.279 7.68038 248.998 7.47831 249.794 7.24026C250.59 7.0022 251.207 6.81974 251.645 6.69286C252.125 6.55815 252.445 6.4751 252.608 6.44372L252.79 6.40842C253.643 6.24369 254.108 6.36423 254.186 6.77005C254.257 7.13529 254.056 7.51093 253.583 7.89699C253.151 8.2752 252.63 8.62851 252.02 8.95694C251.443 9.23693 251.003 9.46918 250.702 9.65369C250.206 9.91799 249.68 10.3564 249.125 10.9689C248.57 11.5814 248.351 12.192 248.469 12.8007C248.995 15.5197 249.576 18.3121 250.214 21.1777C250.893 24.0355 251.624 26.9463 252.408 29.9102C253.974 35.8379 254.944 39.5447 255.315 41.0305C255.679 42.4758 256.272 43.4767 257.095 44.0332C257.951 44.5413 259.133 44.7759 260.641 44.737C262.124 44.7871 262.905 45.0151 262.984 45.4209C263.078 45.9079 262.536 46.2651 261.359 46.4926L254.178 47.565L247.846 49.1048C246.669 49.3323 246.037 49.2229 245.951 48.7765C245.841 48.2083 246.399 47.7215 247.626 47.316C248.853 46.9105 249.627 46.3399 249.947 45.6043C250.268 44.8687 250.288 43.7704 250.005 42.3095C249.236 38.3324 247.55 30.9124 244.945 20.0494C244.819 19.4 244.655 19.095 244.452 19.1342C244.29 19.1656 244.129 19.5334 243.971 20.2376L235.752 50.2428ZM308.42 37.296C308.358 38.2447 307.975 39.0274 307.272 39.6442C306.569 40.261 305.743 40.5384 304.794 40.4764C303.846 40.4144 303.063 40.0318 302.446 39.3288C301.83 38.6257 301.552 37.7999 301.614 36.8512C301.676 35.9026 302.059 35.1199 302.762 34.5031C303.465 33.8863 304.291 33.6089 305.239 33.6709C306.188 33.7329 306.971 34.1154 307.587 34.8185C308.204 35.5215 308.482 36.3474 308.42 37.296ZM356.644 45.573L348.525 43.5139C347.415 43.1881 346.929 42.7872 347.069 42.3112C347.197 41.875 347.732 41.6658 348.674 41.6839C350.394 41.8437 351.743 41.7227 352.722 41.3209C353.702 40.919 354.378 40.0835 354.75 38.8144L362.849 11.2101C363.257 9.82195 363.3 8.86557 362.981 8.34095C362.661 7.81632 361.828 7.20573 360.481 6.50916C359.123 5.85226 358.526 5.24618 358.689 4.69092C358.817 4.25464 359.456 4.20524 360.606 4.54272L367.217 6.67624L374.765 8.69718C375.915 9.03466 376.426 9.42154 376.298 9.85782C376.124 10.4527 375.458 10.6666 374.301 10.4994C373.132 10.3719 372.272 10.292 371.722 10.2597C371.211 10.239 370.623 10.2604 369.959 10.3238C368.799 10.4575 368.057 11.0796 367.731 12.1901L359.509 40.2108C359.125 41.5197 359.149 42.539 359.581 43.2688C360.013 43.9986 361.161 44.637 363.025 45.1839L371.711 47.7325C371.87 47.779 372.412 47.7659 373.338 47.6929C375.657 47.4255 377.82 46.1435 379.83 43.847C380.615 42.7852 381.246 42.3241 381.722 42.4637C382.158 42.5917 382.271 43.0127 382.062 43.7266C382.011 43.7546 381.973 43.8083 381.95 43.8876L381.915 44.0066C380.053 47.1218 378.779 49.4832 378.092 51.0908C377.815 51.7417 377.438 51.9974 376.962 51.8577L356.644 45.573ZM420.91 67.0652L413.867 63.396C412.826 62.8012 412.429 62.2884 412.675 61.8578C412.901 61.4631 413.749 61.5196 415.22 62.0273C416.635 62.5505 417.848 62.7198 418.858 62.5354C419.888 62.3151 420.752 61.5949 421.45 60.3748L435.357 36.0451C436.075 34.7891 436.318 33.7382 436.088 32.8922C435.893 32.0668 435.24 31.1695 434.127 30.2004C432.958 29.2467 432.518 28.5186 432.805 28.0162C433.03 27.6215 433.664 27.7215 434.704 28.3164L440.91 32.0777L446.869 35.27C447.91 35.8648 448.317 36.3596 448.092 36.7543C447.804 37.2567 446.953 37.2464 445.538 36.7232C444.103 36.236 442.934 36.1153 442.032 36.3613C441.15 36.5714 440.36 37.2865 439.663 38.5065L425.756 62.8363C425.058 64.0563 424.876 65.1663 425.209 66.166C425.599 67.1504 426.396 68.1297 427.601 69.104C428.749 70.0936 429.21 70.7858 428.985 71.1805C428.738 71.6111 428.095 71.529 427.054 70.9342L420.91 67.0652ZM474.036 103.326L468.086 98.0658C467.22 97.2374 466.958 96.6439 467.301 96.2854C467.615 95.9568 468.396 96.2171 469.643 97.0662C472.283 98.7903 474.517 98.6964 476.346 96.7844L495.841 76.3951C496.755 75.4391 497.133 74.6851 496.974 74.1332C496.844 73.5515 496.287 72.7893 495.301 71.8466L491.626 68.3331C490.849 67.5904 489.975 67.04 489.002 66.6817C488.029 66.3235 487.209 66.2541 486.542 66.4737C485.846 66.7232 485.118 66.8564 484.358 66.8735C483.628 66.9191 483.114 66.799 482.815 66.5134C482.606 66.3134 482.673 66.0342 483.016 65.6757C483.273 65.4068 483.647 65.1646 484.139 64.9489C486.082 64.233 488.13 63.0177 490.285 61.3031C491.031 60.7016 491.614 60.6009 492.032 61.0008C492.271 61.2293 492.187 62.0644 491.781 63.506C491.538 64.4177 492.298 65.7162 494.061 67.4015L511.134 83.7264C512.269 84.8119 513.336 85.4312 514.333 85.5842C514.715 85.6634 515.198 85.6964 515.783 85.6833C516.397 85.6988 516.88 85.7318 517.232 85.7824C517.612 85.8031 517.907 85.9134 518.116 86.1134C518.325 86.3133 518.101 86.7569 517.444 87.444L517.014 87.8044C515.832 88.5618 514.825 89.2568 513.991 89.8894C513.186 90.4921 512.541 91.0474 512.055 91.5552L511.541 92.093C511.255 92.3917 510.881 92.634 510.417 92.8198C509.983 93.0342 509.662 93.0414 509.453 92.8414C509.124 92.5272 509.426 91.6434 510.358 90.19C511.463 88.6158 510.641 86.5148 507.893 83.8868C506.519 82.5728 505.339 81.4737 504.355 80.5895C503.37 79.7053 502.58 79.036 501.986 78.5815C501.479 78.1544 500.626 78.5681 499.426 79.8229L479.93 100.212C478.074 102.154 478.14 104.447 480.128 107.092C480.943 108.214 481.193 108.94 480.879 109.268C480.536 109.627 479.932 109.392 479.065 108.563L474.036 103.326ZM518.678 148.832L514.324 143.173C513.644 142.186 513.508 141.552 513.916 141.27C514.291 141.012 515.019 141.413 516.102 142.474C517.151 143.558 518.147 144.202 519.09 144.405C520.091 144.619 521.187 144.315 522.378 143.494L545.348 127.657C546.539 126.836 547.213 125.994 547.372 125.132C547.588 124.28 547.404 123.176 546.821 121.821C546.181 120.455 546.099 119.608 546.575 119.28C546.95 119.022 547.477 119.386 548.157 120.373L554.233 129.513L562.199 140.739C562.598 141.318 562.656 141.73 562.374 141.975C559.969 144.386 558.461 145.802 557.848 146.224C557.202 146.67 556.714 146.655 556.386 146.179C556.198 145.906 556.239 145.602 556.509 145.265C557.363 144.174 557.962 143.259 558.306 142.52C558.708 141.791 558.84 141.073 558.702 140.364C558.623 139.666 558.243 138.823 557.562 137.836L552.952 131.15C552.717 130.809 552.277 130.535 551.632 130.328C551.021 130.096 550.494 130.133 550.052 130.438L539.23 137.899C538.924 138.11 538.711 138.383 538.59 138.718C538.526 139.063 538.577 139.354 538.741 139.592L542.119 144.493C543.175 146.024 544.554 146.604 546.257 146.234C546.44 146.208 546.704 146.227 547.049 146.29C547.451 146.364 547.699 146.469 547.793 146.605C547.864 146.707 547.861 146.885 547.784 147.138C547.766 147.402 547.637 147.617 547.399 147.781L544.486 149.563L541.085 152.059C540.507 152.457 540.112 152.504 539.901 152.197C539.549 151.687 539.671 151.026 540.266 150.214C541.445 148.648 541.671 147.337 540.944 146.282L537.671 141.535C537.225 140.889 536.823 140.488 536.465 140.333C536.131 140.212 535.691 140.339 535.147 140.715L525.347 147.472C524.087 148.34 523.379 149.205 523.22 150.068C523.085 150.964 523.428 152.008 524.249 153.199L527.909 158.507C528.754 159.732 529.53 160.603 530.238 161.119C530.945 161.636 531.741 161.916 532.624 161.959C533.565 162.013 534.756 161.92 536.197 161.68C536.678 161.649 537.024 161.787 537.235 162.093C537.517 162.502 537.47 162.835 537.096 163.093C536.415 163.562 535.574 164.017 534.572 164.457C533.627 164.907 532.517 165.372 531.24 165.85C530.544 166.079 530.091 166.04 529.88 165.734L518.678 148.832Z" fill="black"/>
<path d="M531.017 355.548C539.352 319.761 539.123 282.512 530.349 246.83C521.576 211.147 504.504 178.04 480.524 150.199C456.544 122.357 426.332 100.568 392.344 86.6038C358.356 72.6391 321.552 66.8929 284.925 69.8323C248.298 72.7717 212.881 84.3138 181.555 103.52C150.229 122.726 123.878 149.054 104.645 180.364C85.4119 211.673 73.8392 247.079 70.8681 283.704C67.897 320.328 73.6114 357.137 87.5466 391.137L101.492 385.422C88.4562 353.616 83.1107 319.183 85.89 284.922C88.6693 250.662 99.4951 217.541 117.487 188.252C135.479 158.964 160.129 134.335 189.433 116.369C218.737 98.402 251.867 87.6049 286.13 84.8553C320.393 82.1056 354.822 87.4809 386.616 100.544C418.41 113.608 446.672 133.99 469.105 160.034C491.537 186.078 507.507 217.049 515.714 250.428C523.922 283.807 524.136 318.652 516.339 352.129L531.017 355.548Z" fill="black"/>
<path d="M170.104 494.583C128.504 466.983 103.437 425.417 96.1035 408.083C227.704 376.483 329.604 411.583 364.104 433.083C266.104 429.083 193.937 472.417 170.104 494.583Z" fill="#17D917"/>
<path d="M181.104 501.083C263.904 443.883 342.937 439.583 372.104 444.583C333.304 473.782 307.604 518.082 299.604 536.583C238.404 536.183 195.104 512.749 181.104 501.083Z" fill="#17D917"/>
<path d="M313.604 536.583C329.77 494.916 391.604 410.283 509.604 405.083C490.937 447.916 425.604 534.183 313.604 536.583Z" fill="#17D917"/>
<path d="M388.604 433.083C382.604 429.484 371.77 424.25 367.104 422.083C437.904 382.883 496.937 382.749 517.604 387.583L514.604 394.583C454.604 394.583 405.604 420.25 388.604 433.083Z" fill="#17D917"/>
<path d="M299.604 397.083C314.004 400.683 343.604 411.583 356.604 416.583C414.604 373.382 490.77 372.917 521.604 378.084L525.104 368.083C435.504 344.883 337.437 377.75 299.604 397.083Z" fill="#17D917"/>
<path d="M406.604 353.584V318.584H457.104V351.084H485.604V318.584L466.604 292.084L430.104 276.584L395.604 292.084L376.104 318.584V358.584C385.704 355.384 400.437 353.917 406.604 353.584Z" fill="#17D917"/>
<path d="M431.104 337.584L416.604 324.584H446.604L431.104 337.584Z" fill="#17D917"/>
<path d="M412.604 353.584V329.084L427.104 341.584L412.604 353.584Z" fill="#17D917"/>
<path d="M424.104 351.084L431.104 345.584L437.604 351.084H424.104Z" fill="#17D917"/>
<path d="M436.104 340.584L449.604 329.084V350.084L436.104 340.584Z" fill="#17D917"/>
<path d="M366.604 313.084L372.104 314.584L392.604 287.084L431.104 269.584L470.604 287.084L490.604 314.584L496.104 313.084L473.604 282.584L431.104 263.584L388.604 282.584L366.604 313.084Z" fill="#17D917"/>
<path fill-rule="evenodd" clip-rule="evenodd" d="M245.656 386.562C245.656 386.562 241.038 380.396 239.627 374.23C238.219 368.065 241.82 360.806 242.368 354.796C242.368 354.796 242.368 353.352 243.504 353.508C244.639 353.664 248.906 355.381 250.393 352.026C251.881 348.669 256.891 347.966 257.831 342.503C258.771 337.04 263.312 315.732 274.116 314.796C284.921 313.86 291.497 314.366 294.629 315.342C297.761 316.317 298.779 313.859 300.502 313.313C302.224 312.766 304.104 312.141 304.104 309.371C304.104 306.6 303.673 305.039 300.58 303.05C297.487 301.059 296.392 300.279 295.844 299.147C295.295 298.015 293.495 295.283 292.007 293.684C292.007 293.684 293.652 291.537 292.829 289.586C292.007 287.634 290.128 288.571 289.149 287.44C288.17 286.308 286.292 283.459 286.292 283.459C286.292 283.459 295.217 279.869 291.537 267.615C291.537 267.615 291.184 270.932 289.463 273.586C287.74 276.239 284.648 279.596 281.594 280.064C278.54 280.532 275.683 280.806 274.391 279.167C273.1 277.527 273.412 276.083 275.056 272.962C276.701 269.84 278.345 265.469 275.448 260.084C275.448 260.084 275.683 263.674 270.593 270.542C265.504 277.41 266.053 281.001 270.829 284.045C270.829 284.045 267.305 281.937 264.252 282.874C261.198 283.811 264.252 287.634 265.739 288.337C265.739 288.337 259.007 289.586 254.466 289.586C249.925 289.586 233.953 285.216 220.33 289.118C206.706 293.02 189.404 291.46 184.08 291.46C178.756 291.46 173.588 291.578 170.026 289.04C166.464 286.504 164.741 284.982 160.591 288.182C156.442 291.382 154.798 288.338 152.332 289.43C149.866 290.524 143.446 293.099 144.463 311.285C145.481 329.47 146.42 334.777 144.854 340.709C143.289 346.641 139.452 347.343 138.278 352.494C137.104 357.646 139.922 360.221 137.104 364.67C137.104 364.67 139.922 362.719 141.958 357.88C141.958 357.88 142.584 362.875 138.905 367.558C138.905 367.558 144.463 367.011 147.595 359.753C150.727 352.494 146.343 347.187 146.343 347.187C146.343 347.187 150.883 334.855 149.944 321.665C149.004 308.475 150.648 303.792 150.648 303.792C150.648 303.792 155.424 319.557 154.954 327.519C154.485 335.479 157.459 340.319 155.267 345.86C153.075 351.401 156.364 358.036 157.538 361.47C158.713 364.904 160.514 381.684 161.139 384.104C161.766 386.523 173.196 384.572 173.196 384.572L176.25 382.621C176.25 382.621 169.438 378.172 167.559 367.87C165.681 357.567 171.161 348.747 175.076 342.347C175.076 342.347 177.425 343.908 181.183 347.967C184.941 352.026 187.603 359.83 191.048 360.142C194.492 360.455 195.432 352.962 199.503 352.338C203.575 351.713 212.187 351.636 219.703 348.123C227.219 344.611 229.411 346.562 230.038 352.572C230.664 358.581 232.778 363.811 232.621 366.855C232.465 369.898 228.159 385.586 228.159 385.586L241.508 388.084L245.656 386.562Z" fill="black"/>
<path fill-rule="evenodd" clip-rule="evenodd" d="M332.603 364.632C332.603 364.632 333.986 362.802 334.408 360.971C334.83 359.141 333.751 356.986 333.587 355.202C333.587 355.202 333.587 354.773 333.247 354.819C332.907 354.866 331.63 355.375 331.184 354.379C330.739 353.383 329.239 353.174 328.958 351.552C328.676 349.93 327.316 343.604 324.082 343.327C320.847 343.049 318.878 343.199 317.94 343.489C317.002 343.778 316.698 343.048 316.182 342.886C315.666 342.724 315.104 342.539 315.104 341.716C315.104 340.894 315.232 340.43 316.158 339.839C317.084 339.249 317.412 339.017 317.577 338.681C317.741 338.345 318.28 337.534 318.725 337.059C318.725 337.059 318.233 336.422 318.479 335.842C318.725 335.263 319.288 335.541 319.581 335.205C319.874 334.869 320.436 334.023 320.436 334.023C320.436 334.023 317.764 332.958 318.866 329.32C318.866 329.32 318.971 330.305 319.487 331.092C320.003 331.88 320.929 332.877 321.843 333.016C322.757 333.155 323.613 333.236 323.999 332.749C324.386 332.262 324.293 331.834 323.8 330.907C323.308 329.98 322.816 328.683 323.683 327.084C323.683 327.084 323.613 328.15 325.137 330.189C326.66 332.228 326.496 333.294 325.066 334.197C325.066 334.197 326.121 333.572 327.035 333.85C327.949 334.128 327.035 335.263 326.59 335.472C326.59 335.472 328.606 335.842 329.965 335.842C331.325 335.842 336.107 334.545 340.185 335.704C344.264 336.862 349.445 336.399 351.039 336.399C352.633 336.399 354.18 336.434 355.246 335.68C356.313 334.927 356.829 334.476 358.071 335.426C359.313 336.376 359.806 335.472 360.544 335.796C361.283 336.121 363.205 336.885 362.9 342.284C362.595 347.683 362.314 349.259 362.783 351.019C363.252 352.781 364.4 352.989 364.752 354.518C365.104 356.048 364.26 356.812 365.104 358.133C365.104 358.133 364.26 357.554 363.65 356.117C363.65 356.117 363.463 357.6 364.564 358.99C364.564 358.99 362.9 358.828 361.962 356.673C361.025 354.518 362.337 352.943 362.337 352.943C362.337 352.943 360.978 349.282 361.259 345.366C361.54 341.45 361.048 340.06 361.048 340.06C361.048 340.06 359.618 344.74 359.759 347.104C359.9 349.467 359.009 350.904 359.665 352.549C360.322 354.194 359.337 356.163 358.985 357.183C358.634 358.202 358.094 363.184 357.907 363.902C357.72 364.621 354.297 364.041 354.297 364.041L353.383 363.462C353.383 363.462 355.423 362.141 355.985 359.083C356.548 356.024 354.907 353.406 353.735 351.506C353.735 351.506 353.031 351.969 351.906 353.174C350.781 354.379 349.984 356.696 348.953 356.789C347.921 356.882 347.64 354.657 346.421 354.472C345.202 354.286 342.623 354.263 340.373 353.221C338.123 352.178 337.467 352.757 337.279 354.541C337.091 356.325 336.458 357.878 336.505 358.782C336.552 359.685 337.841 364.343 337.841 364.343L333.845 365.084L332.603 364.632Z" fill="black"/>
<path d="M299.103 173.084C213.903 175.084 203.27 222.917 208.603 246.584C216.603 225.784 242.936 206.917 255.103 200.084C229.903 221.684 219.269 244.751 217.103 253.584C241.603 256.084 275.858 239.584 279.603 216.584C282.363 199.626 294.103 180.584 299.103 173.084Z" fill="#29EB1F"/>
<path d="M144.104 211.127C196.093 208.113 204.924 236.516 202.841 251.094C196.944 238.911 179.978 228.805 172.231 225.275C188.643 237.09 196.254 250.514 198.009 255.749C183.21 258.476 161.534 250.194 158.122 236.469C155.605 226.35 147.518 215.415 144.104 211.127Z" fill="#29EB1F"/>
</svg>
