<svg width="467" height="468" viewBox="0 0 467 468" fill="none" xmlns="http://www.w3.org/2000/svg">
<path d="M460.914 286.464C469.249 250.677 469.02 213.428 460.246 177.746C451.472 142.063 434.401 108.956 410.421 81.1145C386.44 53.2733 356.228 31.4845 322.24 17.5198C288.252 3.55515 251.448 -2.1911 214.821 0.748303C178.194 3.68771 142.778 15.2298 111.452 34.436C80.1259 53.6422 53.775 79.9703 34.5417 111.28C15.3084 142.589 3.73564 177.995 0.76455 214.62C-2.20654 251.244 3.50786 288.053 17.4431 322.053L31.3885 316.338C18.3527 284.532 13.0072 250.099 15.7865 215.838C18.5658 181.578 29.3915 148.457 47.3834 119.168C65.3753 89.8799 90.0254 65.2511 119.329 47.2846C148.633 29.318 181.764 18.521 216.027 15.7713C250.29 13.0216 284.718 18.397 316.512 31.4603C348.307 44.5236 376.569 64.906 399.001 90.9503C421.434 116.995 437.403 147.965 445.611 181.344C453.818 214.723 454.032 249.568 446.235 283.045L460.914 286.464Z" fill="black"/>
<path d="M100 425.499C58.4 397.899 33.3333 356.333 26 338.999C157.6 307.399 259.5 342.499 294 363.999C196 359.999 123.833 403.333 100 425.499Z" fill="#17D917"/>
<path d="M111 431.999C193.8 374.799 272.833 370.499 302 375.499C263.2 404.698 237.5 448.998 229.5 467.499C168.3 467.099 125 443.665 111 431.999Z" fill="#17D917"/>
<path d="M243.5 467.499C259.667 425.832 321.5 341.199 439.5 335.999C420.833 378.832 355.5 465.099 243.5 467.499Z" fill="#17D917"/>
<path d="M318.5 363.999C312.5 360.4 301.667 355.166 297 352.999C367.8 313.799 426.833 313.665 447.5 318.499L444.5 325.499C384.5 325.499 335.5 351.166 318.5 363.999Z" fill="#17D917"/>
<path d="M229.5 327.999C243.9 331.599 273.5 342.499 286.5 347.499C344.5 304.298 420.667 303.833 451.5 309L455 298.999C365.4 275.799 267.333 308.666 229.5 327.999Z" fill="#17D917"/>
<path d="M336.5 284.5V249.5H387V282H415.5V249.5L396.5 223L360 207.5L325.5 223L306 249.5V289.5C315.6 286.3 330.333 284.833 336.5 284.5Z" fill="#17D917"/>
<path d="M361 268.5L346.5 255.5H376.5L361 268.5Z" fill="#17D917"/>
<path d="M342.5 284.5V260L357 272.5L342.5 284.5Z" fill="#17D917"/>
<path d="M354 282L361 276.5L367.5 282H354Z" fill="#17D917"/>
<path d="M366 271.5L379.5 260V281L366 271.5Z" fill="#17D917"/>
<path d="M296.5 244L302 245.5L322.5 218L361 200.5L400.5 218L420.5 245.5L426 244L403.5 213.5L361 194.5L318.5 213.5L296.5 244Z" fill="#17D917"/>
<path fill-rule="evenodd" clip-rule="evenodd" d="M175.552 317.478C175.552 317.478 170.934 311.312 169.524 305.146C168.115 298.981 171.717 291.722 172.265 285.712C172.265 285.712 172.265 284.268 173.4 284.424C174.535 284.58 178.802 286.297 180.29 282.942C181.777 279.585 186.787 278.882 187.728 273.419C188.667 267.956 193.209 246.648 204.012 245.712C214.817 244.776 221.394 245.282 224.526 246.258C227.658 247.233 228.675 244.775 230.398 244.229C232.12 243.682 234 243.057 234 240.287C234 237.516 233.569 235.955 230.477 233.966C227.384 231.975 226.288 231.195 225.74 230.063C225.192 228.931 223.391 226.199 221.904 224.6C221.904 224.6 223.548 222.453 222.726 220.502C221.904 218.55 220.024 219.487 219.046 218.356C218.067 217.224 216.188 214.375 216.188 214.375C216.188 214.375 225.113 210.785 221.434 198.531C221.434 198.531 221.081 201.848 219.359 204.502C217.636 207.155 214.544 210.512 211.49 210.98C208.437 211.448 205.579 211.722 204.287 210.083C202.996 208.443 203.309 206.999 204.952 203.878C206.597 200.756 208.241 196.385 205.345 191C205.345 191 205.579 194.59 200.49 201.458C195.401 208.326 195.949 211.917 200.725 214.961C200.725 214.961 197.202 212.853 194.149 213.79C191.094 214.727 194.149 218.55 195.636 219.253C195.636 219.253 188.903 220.502 184.362 220.502C179.821 220.502 163.849 216.132 150.226 220.034C136.603 223.937 119.3 222.376 113.976 222.376C108.652 222.376 103.485 222.494 99.9225 219.956C96.3608 217.42 94.6375 215.898 90.4879 219.098C86.339 222.298 84.6948 219.254 82.2281 220.346C79.7622 221.44 73.3421 224.015 74.3594 242.201C75.3779 260.386 76.3167 265.693 74.7504 271.625C73.1852 277.557 69.349 278.259 68.1742 283.41C67 288.562 69.8185 291.137 67 295.586C67 295.586 69.8185 293.635 71.8542 288.796C71.8542 288.796 72.4805 293.791 68.8012 298.474C68.8012 298.474 74.3595 297.927 77.4912 290.669C80.6233 283.41 76.2391 278.103 76.2391 278.103C76.2391 278.103 80.7796 265.771 79.8402 252.581C78.9007 239.391 80.5448 234.708 80.5448 234.708C80.5448 234.708 85.32 250.473 84.8505 258.435C84.381 266.395 87.3558 271.235 85.1637 276.776C82.9711 282.317 86.2601 288.952 87.4349 292.386C88.6091 295.82 90.4102 312.6 91.0359 315.02C91.6621 317.439 103.093 315.488 103.093 315.488L106.147 313.537C106.147 313.537 99.3344 309.088 97.456 298.786C95.5771 288.483 101.058 279.663 104.972 273.263C104.972 273.263 107.321 274.824 111.079 278.883C114.837 282.942 117.5 290.746 120.944 291.058C124.389 291.371 125.329 283.878 129.399 283.254C133.471 282.629 142.084 282.552 149.599 279.039C157.115 275.527 159.307 277.478 159.935 283.488C160.56 289.497 162.675 294.727 162.518 297.771C162.362 300.814 158.055 316.502 158.055 316.502L171.405 319L175.552 317.478Z" fill="black"/>
<path fill-rule="evenodd" clip-rule="evenodd" d="M262.499 295.548C262.499 295.548 263.882 293.718 264.304 291.887C264.726 290.057 263.648 287.902 263.484 286.118C263.484 286.118 263.484 285.689 263.144 285.735C262.804 285.782 261.526 286.291 261.081 285.295C260.636 284.299 259.135 284.09 258.854 282.468C258.573 280.846 257.213 274.521 253.978 274.243C250.743 273.965 248.774 274.115 247.837 274.405C246.899 274.694 246.594 273.964 246.078 273.802C245.563 273.64 245 273.455 245 272.632C245 271.81 245.129 271.346 246.055 270.755C246.981 270.165 247.309 269.933 247.473 269.597C247.637 269.261 248.176 268.45 248.622 267.975C248.622 267.975 248.129 267.338 248.376 266.758C248.622 266.179 249.184 266.457 249.477 266.121C249.77 265.785 250.333 264.939 250.333 264.939C250.333 264.939 247.661 263.874 248.762 260.236C248.762 260.236 248.868 261.221 249.383 262.008C249.899 262.796 250.825 263.793 251.74 263.932C252.654 264.071 253.509 264.152 253.896 263.665C254.283 263.178 254.189 262.75 253.697 261.823C253.204 260.896 252.712 259.599 253.579 258C253.579 258 253.509 259.066 255.033 261.105C256.557 263.144 256.392 264.21 254.963 265.113C254.963 265.113 256.017 264.488 256.931 264.766C257.846 265.044 256.931 266.179 256.486 266.388C256.486 266.388 258.502 266.758 259.862 266.758C261.221 266.758 266.003 265.461 270.082 266.62C274.161 267.778 279.341 267.315 280.935 267.315C282.529 267.315 284.076 267.35 285.143 266.596C286.209 265.843 286.725 265.392 287.968 266.342C289.21 267.292 289.702 266.388 290.441 266.712C291.179 267.037 293.101 267.801 292.797 273.2C292.492 278.599 292.211 280.175 292.68 281.935C293.148 283.697 294.297 283.905 294.648 285.434C295 286.964 294.156 287.728 295 289.049C295 289.049 294.156 288.47 293.547 287.033C293.547 287.033 293.359 288.516 294.461 289.906C294.461 289.906 292.797 289.744 291.859 287.589C290.921 285.434 292.234 283.859 292.234 283.859C292.234 283.859 290.874 280.198 291.156 276.282C291.437 272.366 290.945 270.976 290.945 270.976C290.945 270.976 289.515 275.656 289.656 278.02C289.796 280.383 288.905 281.82 289.562 283.465C290.218 285.11 289.234 287.079 288.882 288.099C288.53 289.118 287.991 294.1 287.804 294.818C287.616 295.537 284.194 294.957 284.194 294.957L283.279 294.378C283.279 294.378 285.319 293.057 285.881 289.999C286.444 286.94 284.803 284.322 283.631 282.422C283.631 282.422 282.928 282.885 281.803 284.09C280.677 285.295 279.88 287.612 278.849 287.705C277.818 287.798 277.536 285.573 276.318 285.388C275.099 285.202 272.52 285.179 270.27 284.137C268.019 283.094 267.363 283.673 267.175 285.457C266.988 287.241 266.355 288.794 266.402 289.698C266.449 290.601 267.738 295.259 267.738 295.259L263.741 296L262.499 295.548Z" fill="black"/>
<path d="M228.999 104C143.799 106 133.166 153.833 138.499 177.5C146.5 156.7 172.833 137.833 184.999 131C159.799 152.6 149.166 175.667 146.999 184.5C171.499 187 205.755 170.5 209.499 147.5C212.26 130.542 223.999 111.5 228.999 104Z" fill="#29EB1F"/>
<path d="M74 142.043C125.99 139.029 134.821 167.432 132.737 182.01C126.841 169.827 109.874 159.721 102.128 156.192C118.539 168.006 126.151 181.43 127.905 186.665C113.106 189.392 91.4306 181.11 88.018 167.385C85.5019 157.266 77.4145 146.331 74 142.043Z" fill="#29EB1F"/>
</svg>
